<svg id="visual" viewBox="0 0 1024 768" width="1024" height="768" xmlns="http://www.w3.org/2000/svg" xmlns:xlink="http://www.w3.org/1999/xlink" version="1.1"><rect x="0" y="0" width="1024" height="768" fill="#FFFFFF"></rect><defs><linearGradient id="grad1_0" x1="25%" y1="0%" x2="100%" y2="100%"><stop offset="23.333333333333336%" stop-color="#d8d9f6" stop-opacity="1"></stop><stop offset="76.66666666666666%" stop-color="#d8d9f6" stop-opacity="1"></stop></linearGradient></defs><defs><linearGradient id="grad1_1" x1="25%" y1="0%" x2="100%" y2="100%"><stop offset="23.333333333333336%" stop-color="#d8d9f6" stop-opacity="1"></stop><stop offset="76.66666666666666%" stop-color="#ffffff" stop-opacity="1"></stop></linearGradient></defs><defs><linearGradient id="grad2_0" x1="0%" y1="0%" x2="75%" y2="100%"><stop offset="23.333333333333336%" stop-color="#d8d9f6" stop-opacity="1"></stop><stop offset="76.66666666666666%" stop-color="#d8d9f6" stop-opacity="1"></stop></linearGradient></defs><defs><linearGradient id="grad2_1" x1="0%" y1="0%" x2="75%" y2="100%"><stop offset="23.333333333333336%" stop-color="#ffffff" stop-opacity="1"></stop><stop offset="76.66666666666666%" stop-color="#d8d9f6" stop-opacity="1"></stop></linearGradient></defs><g transform="translate(1024, 0)"><path d="M0 320C-44.3 318.3 -88.5 316.7 -122.5 295.6C-156.4 274.6 -180.1 234.2 -200.1 200.1C-220.1 166 -236.5 138.3 -255.9 106C-275.3 73.7 -297.6 36.9 -320 0L0 0Z" fill="#ececfb"></path><path d="M0 160C-22.1 159.2 -44.3 158.3 -61.2 147.8C-78.2 137.3 -90 117.1 -100.1 100.1C-110.1 83 -118.3 69.1 -128 53C-137.6 36.9 -148.8 18.4 -160 0L0 0Z" fill="#d8d9f6"></path></g><g transform="translate(0, 768)"><path d="M0 -320C34.6 -295.1 69.3 -270.3 105.6 -255C142 -239.7 180.1 -234.1 214.3 -214.3C248.4 -194.5 278.7 -160.5 295.6 -122.5C312.6 -84.4 316.3 -42.2 320 0L0 0Z" fill="#ececfb"></path><path d="M0 -160C17.3 -147.6 34.6 -135.1 52.8 -127.5C71 -119.9 90 -117 107.1 -107.1C124.2 -97.2 139.3 -80.3 147.8 -61.2C156.3 -42.2 158.2 -21.1 160 0L0 0Z" fill="#d8d9f6"></path></g></svg>