<svg id="visual" viewBox="0 0 1024 768" width="1024" height="768" xmlns="http://www.w3.org/2000/svg" xmlns:xlink="http://www.w3.org/1999/xlink" version="1.1"><rect x="0" y="0" width="1024" height="768" fill="#FFFFFF"></rect><path d="M935 768L937.7 753.8C940.3 739.7 945.7 711.3 937.5 682.8C929.3 654.3 907.7 625.7 910.7 597.2C913.7 568.7 941.3 540.3 944.5 512C947.7 483.7 926.3 455.3 925.3 426.8C924.3 398.3 943.7 369.7 939 341.2C934.3 312.7 905.7 284.3 891 256C876.3 227.7 875.7 199.3 887 170.8C898.3 142.3 921.7 113.7 933.3 85.2C945 56.7 945 28.3 945 14.2L945 0L1024 0L1024 14.2C1024 28.3 1024 56.7 1024 85.2C1024 113.7 1024 142.3 1024 170.8C1024 199.3 1024 227.7 1024 256C1024 284.3 1024 312.7 1024 341.2C1024 369.7 1024 398.3 1024 426.8C1024 455.3 1024 483.7 1024 512C1024 540.3 1024 568.7 1024 597.2C1024 625.7 1024 654.3 1024 682.8C1024 711.3 1024 739.7 1024 753.8L1024 768Z" fill="#FEC00F" stroke-linecap="round" stroke-linejoin="miter"></path></svg>