<svg id="visual" viewBox="0 0 1024 540" width="1024" height="540" xmlns="http://www.w3.org/2000/svg" xmlns:xlink="http://www.w3.org/1999/xlink" version="1.1"><rect x="0" y="0" width="1024" height="540" fill="#FFFFFF"></rect><path d="M0 385L19 383.5C38 382 76 379 114 383C152 387 190 398 227.8 403.5C265.7 409 303.3 409 341.2 403.7C379 398.3 417 387.7 455 386.2C493 384.7 531 392.3 569 396.5C607 400.7 645 401.3 682.8 398C720.7 394.7 758.3 387.3 796.2 384.2C834 381 872 382 910 382.8C948 383.7 986 384.3 1005 384.7L1024 385L1024 541L1005 541C986 541 948 541 910 541C872 541 834 541 796.2 541C758.3 541 720.7 541 682.8 541C645 541 607 541 569 541C531 541 493 541 455 541C417 541 379 541 341.2 541C303.3 541 265.7 541 227.8 541C190 541 152 541 114 541C76 541 38 541 19 541L0 541Z" fill="#d8d9f6"></path><path d="M0 469L19 466C38 463 76 457 114 454.7C152 452.3 190 453.7 227.8 454.5C265.7 455.3 303.3 455.7 341.2 457.5C379 459.3 417 462.7 455 463.2C493 463.7 531 461.3 569 463C607 464.7 645 470.3 682.8 473.5C720.7 476.7 758.3 477.3 796.2 472.5C834 467.7 872 457.3 910 452.5C948 447.7 986 448.3 1005 448.7L1024 449L1024 541L1005 541C986 541 948 541 910 541C872 541 834 541 796.2 541C758.3 541 720.7 541 682.8 541C645 541 607 541 569 541C531 541 493 541 455 541C417 541 379 541 341.2 541C303.3 541 265.7 541 227.8 541C190 541 152 541 114 541C76 541 38 541 19 541L0 541Z" fill="#fcaf3c"></path></svg>