<svg id="visual" viewBox="0 0 1024 540" width="1024" height="540" xmlns="http://www.w3.org/2000/svg" xmlns:xlink="http://www.w3.org/1999/xlink" version="1.1"><rect x="0" y="0" width="1024" height="540" fill="#FFFFFF"></rect><path d="M0 425L15.5 425.3C31 425.7 62 426.3 93 427.7C124 429 155 431 186 428.3C217 425.7 248 418.3 279 414.2C310 410 341 409 372 405.8C403 402.7 434 397.3 465.2 404.3C496.3 411.3 527.7 430.7 558.8 433.7C590 436.7 621 423.3 652 421C683 418.7 714 427.3 745 433.8C776 440.3 807 444.7 838 440.8C869 437 900 425 931 419.2C962 413.3 993 413.7 1008.5 413.8L1024 414L1024 541L1008.5 541C993 541 962 541 931 541C900 541 869 541 838 541C807 541 776 541 745 541C714 541 683 541 652 541C621 541 590 541 558.8 541C527.7 541 496.3 541 465.2 541C434 541 403 541 372 541C341 541 310 541 279 541C248 541 217 541 186 541C155 541 124 541 93 541C62 541 31 541 15.5 541L0 541Z" fill="#D8D9F6" stroke-linecap="round" stroke-linejoin="miter"></path></svg>